<?xml version="1.0" encoding="utf-8"?>
<!-- Generator: Adobe Illustrator 16.0.0, SVG Export Plug-In . SVG Version: 6.00 Build 0)  -->
<!DOCTYPE svg PUBLIC "-//W3C//DTD SVG 1.0//EN" "http://www.w3.org/TR/2001/REC-SVG-20010904/DTD/svg10.dtd">
<svg version="1.0" id="Layer_1" xmlns="http://www.w3.org/2000/svg" xmlns:xlink="http://www.w3.org/1999/xlink" x="0px" y="0px"
	 width="474.5px" height="98px" viewBox="0 0 474.5 98" style="enable-background:new 0 0 474.5 98;" xml:space="preserve">
<g>
	<path style="fill-rule:evenodd;clip-rule:evenodd;fill:#F58220;" d="M27,22.6C48,1.8,73.5-3.6,83.7,10.6
		c10.1,14.2,1.2,43-19.9,63.8C42.8,95.4,17.4,100.8,7.1,86.5C-3,72.2,5.9,43.5,27,22.6z"/>
	<path style="fill-rule:evenodd;clip-rule:evenodd;fill:#B02A30;" d="M40.9,11.5c-2.3,1.7-4.6,3.7-6.9,5.9
		C15.5,35.7,7.9,60.6,16.9,73.1c9.4,12.5,32.1,8,50.8-10.5c10.1-9.8,16.9-21.4,19.8-32c0.9-7.9-0.3-14.8-3.8-20.1
		C75.6-0.5,58.3,0.4,40.9,11.5z"/>
	<path style="fill-rule:evenodd;clip-rule:evenodd;fill:#FFFFFF;" d="M66.3,10.8c2.5,2.5,1,7.9-3.2,12.1c-4.2,4.1-9.7,5.6-12.1,3.2
		c-2.6-2.5-1.1-7.9,3.1-12.2C58.4,9.8,63.9,8.5,66.3,10.8L66.3,10.8z M51.4,84.8c-9.8,7.4-20.1,11.1-30,9.5
		c4.2,0.2,7.6-4.4,10.4-10.6c2.8-6.4,4.4-12.3,5.8-17.8c1.9-8.7,2.1-15,1.1-16.4c-1.7-2.2-5.5-1.6-9.8,0.9c-2.2,1.2-4.9,0.4-1.6-3.6
		c3.3-4,16.4-13.6,21.2-15.1c5.2-1.5,11.1,0.5,9.1,6.3C56,42,37.9,89.8,51.4,84.8z"/>
	<path style="fill-rule:evenodd;clip-rule:evenodd;fill:#004A80;" d="M87.8,94.5l12.1-45.3h16.1l-12.1,45.3H87.8L87.8,94.5z
		 M154.9,63.8h16.6c1-5.3-0.2-9.2-3.8-11.9c-3.6-2.7-9.4-4-17.5-4c-9.3,0-17.1,2.1-23.2,6.3c-6.2,4.2-10.3,10.2-12.3,17.9
		c-1.9,7.1-0.9,12.6,2.9,16.6c3.8,4,10.1,5.9,18.8,5.9c9.1,0,16.2-1.4,21.5-4.2c5.3-2.8,9.1-7.2,11.2-13.1h-16.6
		c-1.1,2.6-2.8,4.6-4.9,6c-2.1,1.4-4.7,2-7.6,2c-4,0-6.8-1.2-8.3-3.6c-1.5-2.4-1.7-5.8-0.5-10.2c1.2-4.6,3.3-8.1,6.1-10.6
		c2.9-2.5,6.3-3.7,10.4-3.7c2.6,0,4.4,0.6,5.6,1.7C154.5,59.9,155.1,61.6,154.9,63.8L154.9,63.8z M168.9,94.5L181,49.2h16.1
		L185,94.5H168.9L168.9,94.5z M236.1,63.8h16.6c1-5.3-0.2-9.2-3.8-11.9c-3.6-2.7-9.4-4-17.5-4c-9.3,0-17.1,2.1-23.2,6.3
		c-6.2,4.2-10.3,10.2-12.3,17.9c-1.9,7.1-0.9,12.6,2.9,16.6c3.8,4,10.1,5.9,18.8,5.9c9.1,0,16.2-1.4,21.5-4.2
		c5.3-2.8,9.1-7.2,11.2-13.1h-16.6c-1.1,2.6-2.8,4.6-4.9,6c-2.1,1.4-4.7,2-7.6,2c-4,0-6.8-1.2-8.3-3.6c-1.5-2.4-1.7-5.8-0.5-10.2
		c1.2-4.6,3.3-8.1,6.1-10.6c2.9-2.5,6.3-3.7,10.4-3.7c2.6,0,4.4,0.6,5.6,1.7C235.7,59.9,236.2,61.6,236.1,63.8L236.1,63.8z
		 M250.1,94.5l12.1-45.3h16.1l-12.1,45.3H250.1L250.1,94.5z M301.3,87.2H313c3.9,0,6.8-0.5,8.7-1.5c1.9-1,3.2-2.7,3.8-4.9
		c0.7-2.4,0.2-4.2-1.3-5.2c-1.5-1-4.5-1.6-9-1.6h-10.5L301.3,87.2L301.3,87.2z M309.6,56.1l-3,11.1h9.7c4.3,0,7.4-0.4,9.3-1.3
		c1.9-0.9,3.1-2.3,3.7-4.4c0.5-2,0.1-3.4-1.2-4.2c-1.4-0.8-4.2-1.2-8.5-1.2H309.6L309.6,56.1z M289.2,94.5l12.1-45.3h24
		c3.6,0,6.3,0.1,8.1,0.4c1.8,0.3,3.2,0.8,4.3,1.5c1.6,1,2.6,2.3,3.1,3.8c0.5,1.5,0.5,3.3-0.1,5.4c-0.7,2.7-2.2,4.9-4.3,6.6
		c-2.1,1.7-4.9,2.9-8.4,3.5c3.6,0.5,6.2,1.7,7.7,3.7c1.5,2,1.8,4.5,1,7.7c-0.5,1.8-1.3,3.5-2.4,5.1c-1.1,1.6-2.5,2.9-4.1,4
		c-2,1.4-4.2,2.3-6.7,2.9c-2.4,0.6-5.8,0.9-10.1,0.9H289.2L289.2,94.5z M367.1,79.9H361c-3.9,0-6.7,0.4-8.5,1.2
		c-1.8,0.8-2.9,2.2-3.4,4.1c-0.4,1.5-0.1,2.7,0.8,3.4c0.9,0.8,2.5,1.2,4.6,1.2c3,0,5.7-0.8,7.9-2.5c2.2-1.7,3.7-4,4.5-6.8
		L367.1,79.9L367.1,79.9z M363.6,94.5h9.6c0.1-1,0.3-2.1,0.5-3.3c0.2-1.2,0.5-2.4,0.9-3.8l3.4-12.7c1.1-4.2,0.6-7.3-1.6-9.5
		c-2.2-2.1-6-3.2-11.4-3.2c-5.2,0-9.4,0.8-12.8,2.5c-3.4,1.6-5.6,4-6.6,7l9.3,0c0.6-1.5,1.5-2.5,2.9-3.3c1.3-0.7,3.1-1.1,5.4-1.1
		c2.5,0,4.2,0.6,5.1,1.7c0.9,1.1,1,2.8,0.4,5.1l-0.2,0.6h-5.1c-7.7,0-13.5,0.8-17.2,2.4c-3.7,1.6-6.1,4.3-7.1,8.1
		c-0.8,3.1-0.3,5.6,1.7,7.4c2,1.8,5.1,2.8,9.3,2.8c2.8,0,5.3-0.4,7.7-1.3c2.4-0.9,4.5-2.1,6.5-3.8L363.6,94.5L363.6,94.5z
		 M381.8,94.5l6-22.3c0.2-0.6,0.4-1.7,0.7-3.2c0.3-1.5,0.7-3.6,1.2-6h9.6l-1.1,5.5c2.1-2.1,4.3-3.6,6.9-4.6c2.5-1,5.3-1.5,8.4-1.5
		c4.8,0,8.1,1.1,10.2,3.4c2,2.3,2.5,5.4,1.4,9.5l-5.2,19.4h-9.5l4.4-16.5c0.9-3.2,0.8-5.6-0.2-7.2c-1-1.6-2.9-2.4-5.7-2.4
		c-2.9,0-5.6,0.9-8.1,2.8c-2.4,1.9-4.1,4.3-4.8,7.1l-4.3,16.2H381.8L381.8,94.5z M428.6,94.5l12.1-45.3h9.5l-7.1,26.4l18-12.7h12.2
		L454,76.4l14.6,18.1h-13l-13-17l-4.5,17H428.6z"/>
</g>
</svg>
